<svg width="16" height="16" viewBox="0 0 16 16" fill="none" xmlns="http://www.w3.org/2000/svg">
<g clip-path="url(#clip0_210_4962)">
<path d="M1.94336 4.6875L2.77364 14.7105C2.83314 15.4333 3.44883 16 4.17439 16H11.8245C12.5501 16 13.1658 15.4333 13.2253 14.7105L14.0555 4.6875H1.94336ZM5.65527 14.125C5.40989 14.125 5.20345 13.9341 5.18789 13.6855L4.71914 6.12303C4.70311 5.86441 4.89948 5.64194 5.15767 5.62591C5.42545 5.60713 5.63833 5.80581 5.6548 6.06444L6.12355 13.6269C6.14014 13.8948 5.92823 14.125 5.65527 14.125ZM8.4682 13.6562C8.4682 13.9153 8.25855 14.125 7.99945 14.125C7.74036 14.125 7.5307 13.9153 7.5307 13.6562V6.09375C7.5307 5.83466 7.74036 5.625 7.99945 5.625C8.25855 5.625 8.4682 5.83466 8.4682 6.09375V13.6562ZM11.2798 6.12306L10.811 13.6856C10.7956 13.9316 10.5905 14.1367 10.3139 14.1241C10.0557 14.1081 9.85933 13.8856 9.87536 13.627L10.3441 6.06447C10.3601 5.80584 10.5867 5.61769 10.8412 5.62594C11.0994 5.64197 11.2958 5.86444 11.2798 6.12306Z" fill="#FF3D3D"/>
<path d="M14.0938 1.875H11.2812V1.40625C11.2812 0.630813 10.6504 0 9.875 0H6.125C5.34956 0 4.71875 0.630813 4.71875 1.40625V1.875H1.90625C1.38847 1.875 0.96875 2.29472 0.96875 2.8125C0.96875 3.33022 1.38847 3.75 1.90625 3.75C6.21769 3.75 9.78247 3.75 14.0938 3.75C14.6115 3.75 15.0312 3.33022 15.0312 2.8125C15.0312 2.29472 14.6115 1.875 14.0938 1.875ZM10.3438 1.875H5.65625V1.40625C5.65625 1.14762 5.86637 0.9375 6.125 0.9375H9.875C10.1336 0.9375 10.3438 1.14762 10.3438 1.40625V1.875Z" fill="#FF3D3D"/>
</g>
<defs>
<clipPath id="clip0_210_4962">
<rect width="16" height="16" fill="white"/>
</clipPath>
</defs>
</svg>
