<svg width="16" height="16" viewBox="0 0 16 16" fill="none" xmlns="http://www.w3.org/2000/svg">
<g clip-path="url(#clip0_210_4958)">
<path d="M12.6666 8.03064C12.298 8.03064 12 8.32935 12 8.69727V14.0306C12 14.3979 11.7013 14.6973 11.3334 14.6973H2C1.63196 14.6973 1.33337 14.3979 1.33337 14.0306V4.69727C1.33337 4.32996 1.63196 4.03064 2 4.03064H7.33337C7.70203 4.03064 8 3.73193 8 3.36401C8 2.99597 7.70203 2.69727 7.33337 2.69727H2C0.897339 2.69727 0 3.5946 0 4.69727V14.0306C0 15.1333 0.897339 16.0306 2 16.0306H11.3334C12.436 16.0306 13.3334 15.1333 13.3334 14.0306V8.69727C13.3334 8.32861 13.0353 8.03064 12.6666 8.03064Z" fill="black"/>
<path d="M6.25063 7.42334C6.204 7.46997 6.17263 7.5293 6.15932 7.59326L5.68801 9.95068C5.66603 10.0599 5.7007 10.1726 5.77932 10.252C5.84267 10.3153 5.928 10.3492 6.0154 10.3492C6.03664 10.3492 6.05873 10.3473 6.08071 10.3427L8.4374 9.87134C8.5027 9.85791 8.56203 9.82666 8.60805 9.77991L13.8827 4.50525L11.526 2.14868L6.25063 7.42334Z" fill="black"/>
<path d="M15.512 0.518768C14.8621 -0.131256 13.8047 -0.131256 13.1553 0.518768L12.2327 1.44138L14.5894 3.79807L15.512 2.87534C15.8267 2.56137 16 2.14267 16 1.69736C16 1.25204 15.8267 0.833344 15.512 0.518768Z" fill="black"/>
</g>
<defs>
<clipPath id="clip0_210_4958">
<rect width="16" height="16" fill="white"/>
</clipPath>
</defs>
</svg>
