<svg width="16" height="16" viewBox="0 0 16 16" fill="none" xmlns="http://www.w3.org/2000/svg">
<path d="M14.6667 12.6667C14.6667 12.7543 14.6495 12.841 14.616 12.9219C14.5825 13.0028 14.5334 13.0763 14.4715 13.1382C14.4096 13.2001 14.3361 13.2492 14.2552 13.2827C14.1743 13.3162 14.0876 13.3334 14 13.3334H7.87719C7.74134 13.7229 7.48766 14.0606 7.15132 14.2995C6.81497 14.5384 6.41263 14.6668 6.00006 14.6668C5.5875 14.6668 5.18515 14.5384 4.84881 14.2995C4.51246 14.0606 4.25878 13.7229 4.12293 13.3334H2.00004C1.82323 13.3334 1.65366 13.2631 1.52864 13.1381C1.40361 13.0131 1.33337 12.8435 1.33337 12.6667C1.33337 12.4899 1.40361 12.3203 1.52864 12.1953C1.65366 12.0703 1.82323 12 2.00004 12H4.12289C4.25875 11.6105 4.51244 11.2729 4.84879 11.034C5.18514 10.7951 5.58748 10.6667 6.00004 10.6667C6.4126 10.6667 6.81494 10.7951 7.15129 11.034C7.48764 11.2729 7.74133 11.6105 7.87719 12H14C14.0876 12 14.1743 12.0173 14.2552 12.0507C14.3361 12.0842 14.4096 12.1333 14.4715 12.1953C14.5334 12.2572 14.5825 12.3307 14.616 12.4116C14.6495 12.4925 14.6667 12.5792 14.6667 12.6667ZM14 7.33338H12.5439C12.408 6.94383 12.1543 6.6062 11.818 6.3673C11.4816 6.12839 11.0793 6.00004 10.6667 6.00004C10.2541 6.00004 9.85181 6.12839 9.51546 6.3673C9.17911 6.6062 8.92542 6.94383 8.78955 7.33338H2.00004C1.82323 7.33338 1.65366 7.40362 1.52864 7.52864C1.40361 7.65367 1.33337 7.82324 1.33337 8.00005C1.33337 8.17686 1.40361 8.34643 1.52864 8.47145C1.65366 8.59647 1.82323 8.66671 2.00004 8.66671H8.78959C8.92544 9.05627 9.17913 9.39391 9.51547 9.63283C9.85182 9.87175 10.2542 10.0001 10.6667 10.0001C11.0793 10.0001 11.4816 9.87175 11.818 9.63283C12.1543 9.39391 12.408 9.05627 12.5439 8.66671H14C14.1769 8.66671 14.3464 8.59647 14.4714 8.47145C14.5965 8.34643 14.6667 8.17686 14.6667 8.00005C14.6667 7.82324 14.5965 7.65367 14.4714 7.52864C14.3464 7.40362 14.1769 7.33338 14 7.33338ZM2.00004 4.00005H5.45626C5.59211 4.3896 5.84579 4.72725 6.18214 4.96616C6.51848 5.20508 6.92083 5.33344 7.33339 5.33344C7.74596 5.33344 8.1483 5.20508 8.48465 4.96616C8.821 4.72725 9.07468 4.3896 9.21053 4.00005H14C14.1769 4.00005 14.3464 3.92981 14.4714 3.80478C14.5965 3.67976 14.6667 3.51019 14.6667 3.33338C14.6667 3.15657 14.5965 2.987 14.4714 2.86197C14.3464 2.73695 14.1769 2.66671 14 2.66671H9.21053C9.07466 2.27717 8.82097 1.93954 8.48462 1.70063C8.14828 1.46172 7.74593 1.33337 7.33337 1.33337C6.92081 1.33337 6.51847 1.46172 6.18213 1.70063C5.84578 1.93954 5.59209 2.27717 5.45622 2.66671H2.00004C1.82323 2.66671 1.65366 2.73695 1.52864 2.86197C1.40361 2.987 1.33337 3.15657 1.33337 3.33338C1.33337 3.51019 1.40361 3.67976 1.52864 3.80478C1.65366 3.92981 1.82323 4.00005 2.00004 4.00005Z" fill="#0F0F0F"/>
</svg>
