<svg width="21" height="22" viewBox="0 0 21 22" fill="none" xmlns="http://www.w3.org/2000/svg">
<path d="M0.851634 12.2135C0.498614 9.9162 0.322104 8.76763 0.756414 7.74938C1.19071 6.73112 2.15427 6.03443 4.08138 4.64106L5.52123 3.6C7.91853 1.86667 9.11716 1 10.5003 1C11.8833 1 13.082 1.86667 15.4793 3.6L16.9191 4.64106C18.8463 6.03443 19.8098 6.73112 20.2441 7.74938C20.6784 8.76763 20.5019 9.9162 20.1489 12.2135L19.8479 14.1724C19.3474 17.4289 19.0972 19.0572 17.9293 20.0286C16.7614 21 15.0539 21 11.6391 21H9.36146C5.94658 21 4.23915 21 3.07124 20.0286C1.90333 19.0572 1.65311 17.4289 1.15267 14.1724L0.851634 12.2135Z" fill="#003C22" stroke="#003C22"/>
</svg>
